<?xml version="1.0" encoding="utf-8"?>
<!-- Generator: Adobe Illustrator 21.0.0, SVG Export Plug-In . SVG Version: 6.00 Build 0)  -->
<svg version="1.1" id="Layer_1" xmlns="http://www.w3.org/2000/svg" xmlns:xlink="http://www.w3.org/1999/xlink" x="0px" y="0px"
	 viewBox="0 0 1949.4 790.5" style="enable-background:new 0 0 1949.4 790.5;" xml:space="preserve">
<style type="text/css">
	.st0{fill:none;stroke:#DB0C18;stroke-width:10;}
	.st1{fill:#DB0C18;}
	.st2{fill:#5F5F5F;}
	.st3{fill:#C70B16;}
	.st4{fill:#C50B16;}
	.st5{fill:#D70C18;}
	.st6{fill:#DA0C18;}
	.st7{fill:#C60B16;}
	.st8{fill:#CF0B17;}
</style>
<g id="Group_1371" transform="translate(-4206 4622)">
	
		<rect id="Rectangle_753" x="6101.8" y="-4551.3" transform="matrix(0.7071 -0.7071 0.7071 0.7071 4997.4717 3000.8394)" class="st0" width="38.5" height="38.5"/>
	<path id="Path_715" class="st1" d="M5489.5-4419.5l18.2-17.1h20.3v-27.5h-25.9v20.8l-17.6,17.8h-20.9v26.7h20.4l18.1,17.7v21.6
		h25.9v-26.7h-20.3l-18.2-18.7V-4419.5z M5509.9-4455.5h10.2v10.2h-10.2L5509.9-4455.5z M5471.4-4416.9h10.2v10.2h-10.2V-4416.9z
		 M5520.1-4368.2h-10.2v-10.2h10.2V-4368.2z"/>
	<path id="Path_716" class="st2" d="M5613.7-4238.7L5613.7-4238.7z"/>
	
		<rect id="Rectangle_752" x="4770.9" y="-4038.5" transform="matrix(0.7071 -0.7071 0.7071 0.7071 4247.0503 2205.0432)" class="st1" width="28.7" height="28.7"/>
	<g id="Group_1232" transform="translate(-1412 -23)">
		
			<rect id="Rectangle_237" x="5795" y="-4119" transform="matrix(0.7071 -0.7071 0.7071 0.7071 4605.4634 2901.8359)" class="st1" width="21.2" height="21.2"/>
		
			<rect id="Rectangle_242" x="5914.9" y="-4485.1" transform="matrix(0.7071 -0.7071 0.7071 0.7071 4899.4526 2879.4304)" class="st1" width="21.2" height="21.2"/>
		<g id="Group_582" transform="translate(1477.447 380.603)">
			<g id="Group_581">
				<g id="Group_580">
					<g id="Group_575" transform="translate(32.049 29.817)">
						<path id="Path_354" class="st3" d="M4220.1-4762.7l-5.4-1.3l17.7-22.8l5.4,1.3L4220.1-4762.7z"/>
					</g>
					<g id="Group_576" transform="translate(28.701 11.64)">
						<path id="Path_355" class="st4" d="M4241.2-4767.3l-5.4-1.3l-21-18.2l5.4,1.4L4241.2-4767.3z"/>
					</g>
					<g id="Group_577" transform="translate(5.421 1.435)">
						<path id="Path_356" class="st5" d="M4242.4-4786.7l33,28.4l-27.7,35.9l-33-28.5L4242.4-4786.7z M4225.7-4752.3l21,18
							l17.7-22.8l-21-18L4225.7-4752.3"/>
					</g>
					<g id="Group_578" transform="translate(0 35.876)">
						<path id="Path_357" class="st4" d="M4253.1-4757.1l-5.4-1.3l-33-28.4l5.4,1.3L4253.1-4757.1z"/>
					</g>
					<g id="Group_579">
						<path id="Path_358" class="st3" d="M4220.1-4749.6l-5.4-1.3l27.7-35.9l5.4,1.4L4220.1-4749.6z"/>
					</g>
				</g>
			</g>
		</g>
		<g id="Group_710" transform="translate(51.661 23.439)">
			<g id="Group_619" transform="translate(1351.642 265.641)">
				<g id="Group_618">
					<g id="Group_617">
						<g id="Group_614" transform="translate(8.132 1.913)">
							<path id="Path_378" class="st5" d="M4219.8-4786.7l6.1,5.3l-5.1,6.7l-6.1-5.3L4219.8-4786.7z"/>
						</g>
						<g id="Group_615" transform="translate(0 6.537)">
							<path id="Path_379" class="st4" d="M4228.9-4779.4l-8-2.1l-6.2-5.3l8.1,2.1L4228.9-4779.4z"/>
						</g>
						<g id="Group_616">
							<path id="Path_380" class="st3" d="M4222.8-4778.1l-8.1-2.1l5.3-6.5l8,1.9L4222.8-4778.1z"/>
						</g>
					</g>
				</g>
			</g>
			<g id="Group_644" transform="translate(1414.305 225.141)">
				<path id="Path_399" class="st1" d="M4227.6-4760.9l-12.9-12.9l12.9-12.9l12.9,12.9L4227.6-4760.9z M4219.3-4773.8l8.3,8.3
					l8.3-8.3l-8.3-8.3L4219.3-4773.8z"/>
			</g>
			<g id="Group_658" transform="translate(1557.011 218.603)">
				<g id="Group_657">
					<g id="Group_656">
						<g id="Group_653" transform="translate(5.262 1.276)">
							<path id="Path_405" class="st5" d="M4220.3-4786.7l5.7,5.7l-5.6,6.2l-5.7-5.7L4220.3-4786.7z"/>
						</g>
						<g id="Group_654" transform="translate(0 6.218)">
							<path id="Path_406" class="st4" d="M4225.7-4779.7l-5.3-1.3l-5.7-5.7l5.3,1.3L4225.7-4779.7z"/>
						</g>
						<g id="Group_655">
							<path id="Path_407" class="st3" d="M4220-4779.2l-5.3-1.3l5.6-6.2l5.3,1.3L4220-4779.2z"/>
						</g>
					</g>
				</g>
			</g>
			
				<rect id="Rectangle_254" x="5755.2" y="-4620.7" transform="matrix(0.7071 -0.7071 0.7071 0.7071 4951.2173 2720.3682)" class="st1" width="8.5" height="8.5"/>
			<g id="Group_676" transform="translate(1464.372 257.19)">
				<g id="Group_675">
					<g id="Group_674">
						<g id="Group_659" transform="translate(13.234 2.232)">
							<path id="Path_408" class="st4" d="M4229.8-4774.5l-5.3,4.9l-9.9-12.3l5.4-4.9L4229.8-4774.5z"/>
						</g>
						<g id="Group_660" transform="translate(12.915 6.856)">
							<path id="Path_409" class="st4" d="M4225.5-4780l-5.4,5.1l-5.4-6.9l5.4-4.9L4225.5-4780z"/>
						</g>
						<g id="Group_661" transform="translate(12.596 11.48)">
							<path id="Path_410" class="st4" d="M4221.2-4785.5l-5.4,5.1l-1.1-1.4l5.4-4.9L4221.2-4785.5z"/>
						</g>
						<g id="Group_662" transform="translate(11.48 11.48)">
							<path id="Path_411" class="st4" d="M4221.2-4786.7l-5.4,4.9l-1.1,1l5.3-5.1L4221.2-4786.7z"/>
						</g>
						<g id="Group_663" transform="translate(12.437 13.075)">
							<path id="Path_412" class="st4" d="M4223.5-4786.7l-5.3,5.1l-3.5,2.7l5.3-5.1L4223.5-4786.7z"/>
						</g>
						<g id="Group_664" transform="translate(9.248 11.959)">
							<path id="Path_413" class="st4" d="M4223.1-4782.9l-5.3,5.1l-3.2-3.8l5.4-5.1L4223.1-4782.9z"/>
						</g>
						<g id="Group_665" transform="translate(6.856 6.856)">
							<path id="Path_414" class="st4" d="M4226.2-4786.7l-5.4,4.9l-6.1,4.8l5.3-5.1L4226.2-4786.7z"/>
						</g>
						<g id="Group_666" transform="translate(4.624 11.161)">
							<path id="Path_415" class="st4" d="M4227.5-4777.5l-5.3,5.1l-7.5-9.4l5.3-4.9L4227.5-4777.5z"/>
						</g>
						<g id="Group_667" transform="translate(12.118 14.031)">
							<path id="Path_416" class="st4" d="M4228.4-4786.7l-5.3,4.9l-8.5,6.5l5.3-5.1L4228.4-4786.7z"/>
						</g>
						<g id="Group_668" transform="translate(2.073 2.232)">
							<path id="Path_417" class="st4" d="M4231.3-4786.7l-5.4,4.9l-11.2,8.5l5.4-4.9L4231.3-4786.7z"/>
						</g>
						<g id="Group_669" transform="translate(5.262)">
							<path id="Path_418" class="st6" d="M4228.1-4786.7l11.8,14.8l-13.4,10.2l-11.8-14.8L4228.1-4786.7z M4216.9-4776.1l9.9,12.3
								l11.2-8.5l-9.9-12.3L4216.9-4776.1"/>
						</g>
						<g id="Group_670" transform="translate(9.886 4.624)">
							<path id="Path_419" class="st6" d="M4223.3-4786.7l7.5,9.4l-8.5,6.4l-7.7-9.2L4223.3-4786.7z M4216.9-4779.9l5.4,6.9l6.2-4.6
								l-5.4-6.9L4216.9-4779.9"/>
						</g>
						<g id="Group_671" transform="translate(14.669 9.248)">
							<path id="Path_420" class="st6" d="M4218.2-4786.7l3,3.8l-3.5,2.7l-3-3.8L4218.2-4786.7z M4216.8-4783.7l1.1,1.3l1.3-1
								l-1.1-1.3L4216.8-4783.7"/>
						</g>
						<g id="Group_672" transform="translate(0 10.205)">
							<path id="Path_421" class="st4" d="M4231.9-4771.9l-5.4,5.1l-11.8-14.8l5.3-5.1L4231.9-4771.9z"/>
						</g>
						<g id="Group_673" transform="translate(11.799 14.829)">
							<path id="Path_422" class="st4" d="M4233.5-4786.7l-5.4,5.1l-13.4,10.2l5.4-5.1L4233.5-4786.7z"/>
						</g>
					</g>
				</g>
			</g>
			<g id="Group_698" transform="translate(1627.806 293.704)">
				<g id="Group_697">
					<g id="Group_696">
						<g id="Group_693" transform="translate(5.262 1.435)">
							<path id="Path_433" class="st5" d="M4220.3-4786.7l5.7,5.7l-5.6,6.2l-5.7-5.7L4220.3-4786.7z"/>
						</g>
						<g id="Group_694" transform="translate(0 6.378)">
							<path id="Path_434" class="st4" d="M4225.7-4779.7l-5.3-1.4l-5.7-5.6l5.3,1.3L4225.7-4779.7z"/>
						</g>
						<g id="Group_695">
							<path id="Path_435" class="st3" d="M4220-4779.1l-5.3-1.3l5.6-6.4l5.3,1.4L4220-4779.1z"/>
						</g>
					</g>
				</g>
			</g>
			
				<rect id="Rectangle_258" x="5792.4" y="-4488" transform="matrix(0.7071 -0.7071 0.7071 0.7071 4868.3247 2785.5374)" class="st1" width="8.5" height="8.5"/>
		</g>
		<g id="Group_813" transform="translate(95.828 542.443)">
			
				<rect id="Rectangle_260" x="5808.3" y="-4382.8" transform="matrix(0.7071 -0.7071 0.7071 0.7071 4798.5566 2827.6365)" class="st1" width="8.5" height="8.5"/>
			<g id="Group_746" transform="translate(1439.02 407.071)">
				<g id="Group_745">
					<g id="Group_744">
						<g id="Group_729" transform="translate(2.232 12.278)">
							<path id="Path_453" class="st5" d="M4214.7-4784.5l6.7-2.2l10,12l-6.9,2.2L4214.7-4784.5z"/>
						</g>
						<g id="Group_730" transform="translate(6.697 12.756)">
							<path id="Path_454" class="st5" d="M4214.7-4784.5l6.9-2.2l5.4,6.5l-6.7,2.2L4214.7-4784.5z"/>
						</g>
						<g id="Group_731" transform="translate(11.161 13.075)">
							<path id="Path_455" class="st5" d="M4214.7-4784.5l6.9-2.2l1.1,1.3l-6.9,2.2L4214.7-4784.5z"/>
						</g>
						<g id="Group_732" transform="translate(11.161 11.959)">
							<path id="Path_456" class="st7" d="M4215.8-4784.5l6.9-2.2l-1.1,1.1l-6.9,2.2L4215.8-4784.5z"/>
						</g>
						<g id="Group_733" transform="translate(6.697 7.175)">
							<path id="Path_457" class="st7" d="M4220.4-4784.5l6.7-2.2l-5.6,5.6l-6.9,2.2L4220.4-4784.5z"/>
						</g>
						<g id="Group_734" transform="translate(12.437 9.726)">
							<path id="Path_458" class="st5" d="M4214.7-4784.5l6.7-2.2l3.2,3.8l-6.9,2.2L4214.7-4784.5z"/>
						</g>
						<g id="Group_735" transform="translate(12.277 13.553)">
							<path id="Path_459" class="st7" d="M4217.9-4784.5l6.9-2.2l-3.3,3l-6.7,2.2L4217.9-4784.5z"/>
						</g>
						<g id="Group_736" transform="translate(9.248 11.959)">
							<path id="Path_460" class="st8" d="M4217.9-4786.7l3.2,3.7l-3.2,3.2l-3.2-3.7L4217.9-4786.7z M4216.6-4783.4l1.1,1.3l1.1-1.1
								l-1.1-1.3L4216.6-4783.4"/>
						</g>
						<g id="Group_737" transform="translate(2.232 2.232)">
							<path id="Path_461" class="st7" d="M4224.9-4784.5l6.9-2.2l-10.4,10l-6.7,2.2L4224.9-4784.5z"/>
						</g>
						<g id="Group_738" transform="translate(12.277 13.872)">
							<path id="Path_462" class="st7" d="M4222.3-4784.5l6.9-2.2l-7.8,7.7l-6.7,2.2L4222.3-4784.5z"/>
						</g>
						<g id="Group_739" transform="translate(4.624 7.016)">
							<path id="Path_463" class="st8" d="M4222.5-4786.7l7.5,9.1l-7.8,7.7l-7.5-9.1L4222.5-4786.7z M4216.8-4778.8l5.6,6.5l5.7-5.6
								l-5.6-6.5L4216.8-4778.8"/>
						</g>
						<g id="Group_740" transform="translate(12.437 4.783)">
							<path id="Path_464" class="st5" d="M4214.7-4784.5l6.7-2.2l7.7,9.1l-6.9,2.2L4214.7-4784.5z"/>
						</g>
						<g id="Group_741" transform="translate(0 2.232)">
							<path id="Path_465" class="st8" d="M4227.1-4786.7l12,14.4l-12.4,12.1l-12-14.3L4227.1-4786.7z M4216.9-4774.5l9.9,11.8
								l10.2-10l-9.9-12L4216.9-4774.5"/>
						</g>
						<g id="Group_742" transform="translate(12.118 14.35)">
							<path id="Path_466" class="st7" d="M4227.1-4784.5l6.7-2.2l-12.3,12.1l-6.9,2.2L4227.1-4784.5z"/>
						</g>
						<g id="Group_743" transform="translate(12.437)">
							<path id="Path_467" class="st5" d="M4214.7-4784.5l6.9-2.2l12,14.4l-6.7,2.2L4214.7-4784.5z"/>
						</g>
					</g>
				</g>
			</g>
			
				<rect id="Rectangle_264" x="5770.4" y="-4728.9" transform="matrix(0.7071 -0.7071 0.7071 0.7071 5032.1567 2699.4482)" class="st1" width="8.5" height="8.5"/>
			<g id="Group_787" transform="translate(1464.85 89.132)">
				<g id="Group_786">
					<g id="Group_785">
						<g id="Group_780" transform="translate(12.756 11.959)">
							<path id="Path_492" class="st3" d="M4220.1-4776.2l-5.4-1.4l7.2-9.1l5.4,1.3L4220.1-4776.2z"/>
						</g>
						<g id="Group_781" transform="translate(11.48 4.783)">
							<path id="Path_493" class="st4" d="M4228.6-4778.3l-5.4-1.3l-8.5-7.2l5.4,1.3L4228.6-4778.3z"/>
						</g>
						<g id="Group_782" transform="translate(5.262 1.435)">
							<path id="Path_494" class="st5" d="M4225.9-4786.7l13.2,11.3l-11.2,14.4l-13.2-11.3L4225.9-4786.7z M4219.2-4773l8.5,7.2
								l7.2-9.1l-8.5-7.3L4219.2-4773"/>
						</g>
						<g id="Group_783" transform="translate(0 14.35)">
							<path id="Path_495" class="st4" d="M4233.2-4774l-5.3-1.3l-13.2-11.5l5.3,1.4L4233.2-4774z"/>
						</g>
						<g id="Group_784">
							<path id="Path_496" class="st3" d="M4220-4771l-5.3-1.4l11.2-14.4l5.3,1.4L4220-4771z"/>
						</g>
					</g>
				</g>
			</g>
			<g id="Group_795" transform="translate(1360.731 105.714)">
				<g id="Group_794">
					<g id="Group_793">
						<g id="Group_788" transform="translate(12.915 11.959)">
							<path id="Path_497" class="st3" d="M4220-4776.2l-5.3-1.4l7.2-9.1l5.3,1.3L4220-4776.2z"/>
						</g>
						<g id="Group_789" transform="translate(11.48 4.783)">
							<path id="Path_498" class="st4" d="M4228.6-4778.3l-5.3-1.3l-8.6-7.2l5.4,1.3L4228.6-4778.3z"/>
						</g>
						<g id="Group_790" transform="translate(5.421 1.435)">
							<path id="Path_499" class="st5" d="M4225.9-4786.7l13.2,11.3l-11.2,14.4l-13.2-11.3L4225.9-4786.7z M4219.2-4773l8.5,7.2
								l7.2-9.1l-8.5-7.3L4219.2-4773"/>
						</g>
						<g id="Group_791" transform="translate(0 14.35)">
							<path id="Path_500" class="st4" d="M4233.4-4774l-5.4-1.3l-13.2-11.5l5.4,1.4L4233.4-4774z"/>
						</g>
						<g id="Group_792">
							<path id="Path_501" class="st3" d="M4220.1-4771l-5.4-1.4l11.2-14.4l5.4,1.4L4220.1-4771z"/>
						</g>
					</g>
				</g>
			</g>
			
				<rect id="Rectangle_266" x="5605.5" y="-4427.9" transform="matrix(0.7071 -0.7071 0.7071 0.7071 4771.0884 2671.0234)" class="st1" width="8.5" height="8.5"/>
			<g id="Group_802" transform="translate(1328.363 34.441)">
				<path id="Path_505" class="st1" d="M4227.9-4759.8l-13.2-13.7l13.7-13.2l13.2,13.7L4227.9-4759.8z M4216.9-4773.5l11,11.3
					l11.3-10.8l-11-11.3L4216.9-4773.5z M4227.9-4764.7l-8.3-8.6l8.6-8.3l8.3,8.6L4227.9-4764.7z M4221.9-4773.3l6.1,6.2l6.2-6.1
					l-6.1-6.2L4221.9-4773.3z M4228.1-4769.8l-3.5-3.5l3.5-3.5l3.5,3.5L4228.1-4769.8z M4227-4773.3l1.1,1.3l1.3-1.1l-1.1-1.3
					L4227-4773.3z"/>
			</g>
			<g id="Group_803" transform="translate(1466.126)">
				<path id="Path_506" class="st1" d="M4227.9-4759.8l-13.2-13.7l13.7-13.2l13.2,13.7L4227.9-4759.8z M4217.1-4773.3l11,11.3
					l11.3-10.8l-11-11.3L4217.1-4773.3z M4228.1-4764.7l-8.3-8.6l8.6-8.3l8.3,8.6L4228.1-4764.7z M4222-4773.3l6.1,6.2l6.2-6.1
					l-6.1-6.2L4222-4773.3z M4228.2-4769.7l-3.5-3.5l3.5-3.5l3.5,3.5L4228.2-4769.7z M4227-4773.2l1.1,1.3l1.3-1.1l-1.1-1.3
					L4227-4773.2z"/>
			</g>
		</g>
	</g>
</g>
</svg>
